<?xml version="1.0" encoding="utf-8"?>
<!-- Generator: Adobe Illustrator 23.0.1, SVG Export Plug-In . SVG Version: 6.00 Build 0)  -->
<svg version="1.1" id="Layer_1" xmlns="http://www.w3.org/2000/svg" xmlns:xlink="http://www.w3.org/1999/xlink" x="0px" y="0px"
	 viewBox="0 0 539 272.1" style="enable-background:new 0 0 539 272.1;" xml:space="preserve">
<style type="text/css">
	.st0{fill:#B2B2B2;}
	.st1{fill:#FFFFFF;}
	.st2{enable-background:new    ;}
	.st3{opacity:0.96;enable-background:new    ;}
	.st4{fill:#FFFFFF;stroke:#FFFFFF;stroke-width:0.5;stroke-miterlimit:10;}
</style>
<title>logo_bw</title>
<path class="st0" d="M170.9,6.3c-1.9-0.1-3.7,0.2-5.4,1c-1.3,0.7-2.3,1.7-2.9,3c-0.7,1.6-1.2,3.3-1.2,5c-0.1,1.9-0.2,4.2-0.2,6.8
	v26.8c0,4.5-0.3,9-1.1,13.5c-0.5,3.3-1.5,6.5-2.9,9.5c-0.9,2.2-2.2,4.2-3.8,5.9c-1.1,1.1-2.4,2.1-3.8,2.8c2.9,2,5.2,4.6,6.7,7.8
	c1.5,3,2.6,6.3,3.3,9.6c1.1,5,1.5,10,1.4,15.1v27c0,4.6,0.7,8.2,1.9,10.6s4.3,3.7,8.9,3.7h4.1v6.4h-4.4c-6.4,0-10.9-1.8-13.4-5.5
	s-3.9-8.6-3.9-14.8v-26.8c0-3.5-0.2-7-0.6-10.5c-0.4-3.1-1.1-6.2-2.1-9.2c-0.9-2.5-2.2-4.8-4-6.8c-1.6-1.8-3.7-2.9-6.1-3.3v-5.5
	c2.4-0.4,4.5-1.5,6.1-3.3c1.8-2,3.2-4.4,4.1-6.9c1-3,1.8-6.1,2.2-9.2c0.4-3.5,0.6-7,0.6-10.5V21.9c0-2.9,0.2-5.9,0.6-8.8
	c0.2-2.4,1-4.8,2.2-6.9c1.2-1.9,2.9-3.5,4.9-4.5c2.6-1.2,5.4-1.8,8.3-1.7h5.5v6.3C175.9,6.3,170.9,6.3,170.9,6.3z"/>
<path class="st0" d="M378.3,0c2.9-0.1,5.7,0.5,8.3,1.7c2,1,3.7,2.6,4.9,4.5c1.2,2.1,2,4.5,2.3,6.9c0.3,2.9,0.5,5.9,0.5,8.8v26.6
	c0,3.5,0.2,7,0.7,10.5c0.3,3.1,1,6.2,2.1,9.2c0.8,2.6,2.2,4.9,4,6.9c1.6,1.8,3.8,2.9,6.2,3.3v5.5c-2.4,0.4-4.5,1.5-6.1,3.3
	c-1.8,2-3.1,4.3-4,6.8c-1,3-1.7,6.1-2.1,9.2c-0.4,3.5-0.6,7-0.6,10.5v26.8c0,6.2-1.3,11.2-3.9,14.8s-7,5.5-13.4,5.5h-4.4v-6.4h4.1
	c4.6,0,7.6-1.2,8.9-3.7s1.9-6,1.9-10.6v-27c-0.1-5.1,0.4-10.1,1.4-15.1c0.7-3.3,1.8-6.6,3.3-9.6c1.5-3.2,3.8-5.8,6.7-7.8
	c-1.4-0.7-2.7-1.7-3.8-2.8c-1.6-1.7-2.9-3.7-3.8-5.9c-1.3-3-2.3-6.2-2.9-9.5c-0.8-4.5-1.1-9-1.1-13.5V22.1c0-2.6,0-4.9-0.2-6.8
	c0-1.7-0.5-3.4-1.2-5c-0.6-1.3-1.6-2.3-2.9-3c-1.7-0.8-3.5-1.1-5.4-1h-5V0H378.3z"/>
<rect x="183" class="st1" width="182.6" height="6.2"/>
<rect x="183" y="154.6" class="st1" width="182.6" height="6.2"/>
<path class="st1" d="M326.6,171.3v-7.4h4.1v10.4H218v-10.4h4.1v7.4H326.6z"/>
<g class="st2">
	<path class="st1" d="M11.9,215.9h16.4v8.2H11.9v15H3.5V199h27.1v8.1H11.9V215.9z"/>
	<path class="st1" d="M44.1,224.4v14.7h-8.4V199h15.8c2,0,3.9,0.2,5.6,0.7c1.7,0.5,3.2,1.2,4.5,2.3c1.3,1,2.3,2.4,3,4
		s1.1,3.6,1.2,5.8c0,3.7-0.8,6.5-2.4,8.4s-3.8,3.1-6.7,3.7l12,15.2H58.5l-11.4-14.7H44.1z M51.6,216.8c1.9,0,3.3-0.4,4.4-1.2
		s1.6-2,1.6-3.8c0-1.7-0.5-2.9-1.6-3.6c-1-0.6-2.3-0.9-3.9-0.9c-0.2,0-0.3,0-0.5,0h-7.4v9.5H51.6z"/>
	<path class="st1" d="M104.3,239.1h-8.7l-3.5-9.2h-12l-3.3,9.2h-8.9l14-40.1h8L104.3,239.1z M82.2,222.3h7.7l-2.5-8.7l-1.2-5.7h-0.4
		l-1.2,5.8L82.2,222.3z"/>
	<path class="st1" d="M130.6,219.5V199h8.3v40.1H130L117.8,218l-2.4-5.4l-0.6,0.1l1.1,6.9v19.6h-8.4V199h8.2l12.7,21.9l2.8,7.3
		l0.6-0.1c-0.1-0.6-0.2-1.4-0.4-2.3c-0.1-0.9-0.3-1.8-0.4-2.6c-0.1-0.9-0.2-1.6-0.3-2.3C130.7,220.2,130.6,219.7,130.6,219.5z"/>
	<path class="st1" d="M160.7,239.7c-1.9,0-3.8-0.3-5.7-0.8c-1.9-0.6-3.6-1.4-5.1-2.5s-2.7-2.5-3.6-4.1c-0.9-1.7-1.4-3.6-1.4-5.8
		v-14.6c0-2.2,0.4-4.1,1.3-5.8c0.9-1.7,2.1-3,3.5-4.2c1.5-1.1,3.2-2,5-2.5c1.9-0.6,3.8-0.9,5.8-0.9c1.3,0,2.7,0.2,4,0.5
		c1.4,0.3,2.7,0.9,3.9,1.6c1.2,0.7,2.4,1.6,3.4,2.7c1,1.1,1.9,2.4,2.6,3.8l-6.7,3.6c-0.8-1.5-1.9-2.6-3.4-3.3c-1.4-0.7-2.8-1-4.2-1
		c-0.1,0-0.2,0-0.2,0c-0.9,0-1.8,0.1-2.6,0.4c-0.8,0.3-1.5,0.6-2.2,1.1c-0.6,0.5-1.2,1-1.5,1.7c-0.4,0.7-0.6,1.4-0.6,2.2v14.6
		c0,0.8,0.2,1.6,0.5,2.2c0.4,0.6,0.9,1.2,1.5,1.6c0.6,0.5,1.3,0.8,2.2,1c0.8,0.2,1.7,0.4,2.5,0.4c0.1,0,0.2,0,0.2,0
		c1.4,0,2.9-0.3,4.2-1c1.5-0.7,2.6-1.8,3.4-3.3l7.2,4c-1.7,2.8-3.9,4.9-6.4,6.3C166,239,163.4,239.7,160.7,239.7z"/>
	<path class="st1" d="M178,211.8c0-2.2,0.5-4.2,1.4-5.9s2.2-3.1,3.7-4.2c1.5-1.1,3.3-1.9,5.3-2.5s4-0.8,6-0.8s4.1,0.3,6,0.9
		c2,0.6,3.7,1.4,5.3,2.5c1.5,1.1,2.8,2.5,3.7,4.2s1.4,3.6,1.4,5.8v14.6c0,2.2-0.5,4.2-1.4,5.8c-0.9,1.7-2.2,3.1-3.7,4.2
		s-3.3,2-5.3,2.5c-2,0.6-4,0.8-6,0.8s-4.1-0.3-6-0.8s-3.7-1.4-5.3-2.5s-2.8-2.5-3.7-4.2s-1.4-3.6-1.4-5.9V211.8z M186.3,226.3
		c0,0.9,0.2,1.6,0.7,2.2c0.5,0.6,1.1,1.1,1.8,1.6c0.8,0.4,1.6,0.7,2.6,0.9s2,0.3,3,0.3s2-0.1,3-0.3s1.8-0.5,2.6-1
		c0.8-0.4,1.4-0.9,1.8-1.6c0.5-0.6,0.7-1.3,0.7-2.2v-14.6c0-0.9-0.2-1.6-0.7-2.3c-0.5-0.6-1.1-1.2-1.8-1.6c-0.8-0.4-1.6-0.7-2.6-0.9
		s-2-0.3-3-0.3s-2,0.1-3,0.3s-1.8,0.5-2.6,1c-0.8,0.4-1.4,0.9-1.8,1.6c-0.5,0.6-0.7,1.4-0.7,2.2V226.3z"/>
	<path class="st1" d="M225.1,239.1h-8.3V199h8.3V239.1z"/>
	<path class="st1" d="M245.2,231.6c1.5,0,2.8-0.3,3.9-1c1.2-0.7,1.9-1.8,1.9-3.3c0-0.8-0.2-1.4-0.6-1.9c-0.4-0.6-1-1-1.7-1.4
		s-1.5-0.6-2.5-0.8s-2-0.4-3-0.5c-1.6-0.2-3.1-0.6-4.7-1.1c-1.5-0.5-2.9-1.3-4.1-2.3c-1.2-1-2.1-2.2-2.9-3.7
		c-0.7-1.4-1.1-3.2-1.1-5.3c0-0.1,0-0.2,0-0.3c0.1-1.9,0.6-3.6,1.5-5c0.9-1.5,2-2.7,3.3-3.6c1.3-1,2.9-1.7,4.6-2.2s3.5-0.7,5.3-0.7
		c2.6,0,5.1,0.5,7.5,1.6s4.4,2.9,6.1,5.4l-6.9,4.6c-0.9-1.3-1.9-2.3-3-2.9c-1.1-0.6-2.4-0.9-3.7-0.9c-0.8,0-1.5,0.1-2.3,0.2
		c-0.7,0.2-1.4,0.4-1.9,0.7c-0.6,0.3-1,0.7-1.4,1.2c-0.3,0.5-0.5,1.1-0.6,1.8v0.1c0,0.8,0.2,1.5,0.6,2c0.4,0.5,0.9,0.9,1.6,1.2
		c0.6,0.3,1.4,0.6,2.2,0.7c0.8,0.2,1.7,0.3,2.5,0.5c1.7,0.3,3.4,0.8,5.1,1.3c1.6,0.5,3.1,1.3,4.4,2.3c1.3,1,2.3,2.3,3,3.8
		c0.6,1.4,1,3,1,5c0,0.3,0,0.6,0,0.9c-0.2,1.9-0.7,3.6-1.6,5s-2.1,2.6-3.5,3.6s-3,1.7-4.8,2.2s-3.5,0.8-5.4,0.8
		c-2.6,0-5.2-0.6-7.7-1.9c-2.5-1.3-4.6-3.2-6.3-5.8l6.3-4.8c0.9,1.4,2.2,2.5,3.7,3.3c1.6,0.7,3.2,1.1,4.7,1.2
		C245,231.6,245.1,231.6,245.2,231.6z"/>
</g>
<g class="st2">
	<path class="st0" d="M281.6,207.3v31.8h-8.4v-31.8h-11.5v-8.4h31.4v8.4H281.6z"/>
	<path class="st0" d="M305.9,224.4v14.7h-8.4V199h15.8c2,0,3.9,0.2,5.6,0.7s3.2,1.2,4.5,2.3c1.3,1,2.3,2.4,3,4s1.1,3.6,1.2,5.8
		c0,3.7-0.8,6.5-2.4,8.4s-3.8,3.1-6.7,3.7l12,15.2h-10.3l-11.4-14.7H305.9z M313.3,216.8c1.9,0,3.3-0.4,4.4-1.2s1.6-2,1.6-3.8
		c0-1.7-0.5-2.9-1.6-3.6c-1-0.6-2.3-0.9-3.9-0.9c-0.2,0-0.3,0-0.5,0h-7.4v9.5H313.3z"/>
	<path class="st0" d="M341.7,215H359v8.1h-17.3v7.9h18.8v8.1h-27.2v-40.2h27.2v8.2h-18.8V215z"/>
	<path class="st0" d="M374.7,239.1h-8.3V199h8.7l9.7,23.1l9.9-23.1h8.7v40.1h-8.3v-16l1-7.8h-0.6l-1.9,5.6l-5.5,12.9h-6.2l-5.6-12.9
		l-1.9-5.5h-0.6l0.9,7.8L374.7,239.1L374.7,239.1z"/>
	<path class="st0" d="M438.9,210.7c0,0.6-0.1,1.2-0.2,1.8c-0.1,0.7-0.4,1.3-0.7,2c-0.3,0.6-0.7,1.2-1.2,1.8s-1,1-1.7,1.4
		c1.2,0.6,2.3,1.3,3,2.2c0.8,0.9,1.4,1.8,1.8,2.8s0.6,2,0.7,3.1c0,0.3,0.1,0.7,0.1,1.1c0,0.7-0.1,1.4-0.2,2
		c-0.2,1.4-0.6,2.7-1.2,3.9s-1.5,2.3-2.6,3.2s-2.5,1.7-4.2,2.2c-1.7,0.6-3.6,0.9-6,0.9h-16.2v-40.2h15.9c1.7,0,3.4,0.2,4.9,0.7
		s2.9,1.2,4,2.2s2,2.2,2.7,3.7C438.6,207.1,438.9,208.8,438.9,210.7z M426.3,214.7c1.4,0,2.5-0.4,3.3-1.2c0.8-0.9,1.2-1.8,1.2-2.8
		c0-0.8-0.3-1.6-1-2.4c-0.8-0.8-1.9-1.2-3.5-1.2h-7.5v7.6L426.3,214.7L426.3,214.7z M426.3,231c1.3,0,2.4-0.2,3.3-0.7s1.5-1,2-1.7
		c0.4-0.7,0.7-1.4,0.7-2.2s-0.2-1.5-0.7-2.2c-0.4-0.7-1.1-1.2-2-1.7s-2-0.7-3.3-0.7h-7.5v9.2L426.3,231L426.3,231z"/>
	<path class="st0" d="M445.8,199h8.3v31.7h17.3v8.4h-25.7V199H445.8z"/>
</g>
<g>
	<path class="st0" d="M508.6,239.1h-8.7l-3.5-9.2h-12l-3.3,9.2h-8.9l14.1-40.1h8L508.6,239.1z M486.5,222.3h7.7l-2.6-8.7l-1.2-5.7
		H490l-1.2,5.8L486.5,222.3z"/>
</g>
<g>
	<path class="st0" d="M516.7,239.1v-15.4L502.8,199h9.6l8.5,16.8l8.5-16.8h9.7l-14,24.8v15.4L516.7,239.1L516.7,239.1z"/>
</g>
<g class="st3">
	<path class="st4" d="M122.2,251.1v7h7.8v0.9h-7.8v7.2h-0.9v-16h9.6v0.9H122.2z"/>
	<path class="st4" d="M134.4,261.7c0,0.6,0.1,1.2,0.4,1.7s0.6,0.9,1.1,1.2c0.5,0.3,1,0.6,1.6,0.7c0.6,0.2,1.2,0.2,1.8,0.2
		s1.2-0.1,1.8-0.2c0.6-0.2,1.1-0.4,1.6-0.7c0.5-0.3,0.8-0.7,1.1-1.2s0.4-1,0.4-1.7v-11.5h0.9v11.5c0,0.8-0.2,1.5-0.5,2.1
		s-0.8,1.1-1.3,1.5s-1.2,0.7-1.9,0.9c-0.7,0.2-1.4,0.3-2.1,0.3c-0.7,0-1.4-0.1-2.1-0.3c-0.7-0.2-1.3-0.5-1.8-0.9s-1-0.9-1.3-1.5
		s-0.5-1.3-0.5-2.1v-11.5h0.9L134.4,261.7L134.4,261.7z"/>
	<path class="st4" d="M148.9,266.3v-16h0.9v15.2h8v0.9h-8.9V266.3z"/>
</g>
<g class="st2">
	<path class="st4" d="M160.3,266.3v-16h0.9v15.2h8v0.9h-8.9V266.3z"/>
</g>
<g class="st2">
	<path class="st4" d="M176,259.9h-6.4V259h6.4V259.9z"/>
</g>
<g class="st2">
	<path class="st4" d="M179.3,254.2c0,0.5,0.1,0.9,0.3,1.2c0.2,0.4,0.6,0.8,1,1.1c0.4,0.3,0.9,0.5,1.5,0.7s1.2,0.4,1.8,0.5
		c0.7,0.1,1.4,0.3,2,0.5c0.7,0.2,1.3,0.5,1.8,0.8c0.5,0.4,0.9,0.8,1.3,1.3c0.3,0.5,0.4,1,0.4,1.7c0,0.1,0,0.2,0,0.3
		c0,0.7-0.2,1.3-0.5,1.8s-0.7,0.9-1.3,1.3c-0.5,0.3-1.1,0.6-1.7,0.8c-0.6,0.2-1.3,0.3-2,0.3c-0.5,0-1.1-0.1-1.6-0.2
		c-0.6-0.1-1.1-0.3-1.6-0.5s-0.9-0.5-1.3-0.9c-0.4-0.3-0.7-0.8-1-1.2l0.8-0.4c0.2,0.4,0.5,0.7,0.8,1s0.7,0.5,1.1,0.7
		c0.4,0.2,0.9,0.3,1.3,0.4c0.5,0.1,1,0.1,1.4,0.1c0.5,0,1.1-0.1,1.6-0.2s1-0.3,1.4-0.6c0.4-0.3,0.8-0.6,1.1-1s0.5-0.9,0.5-1.5
		c0-0.1,0-0.2,0-0.3c0-0.6-0.1-1-0.3-1.4c-0.3-0.5-0.6-0.8-1.1-1.1c-0.5-0.3-1-0.5-1.6-0.7s-1.2-0.3-1.8-0.4s-1.2-0.3-1.9-0.5
		s-1.2-0.5-1.7-0.8s-0.9-0.8-1.2-1.3c-0.3-0.5-0.4-1-0.4-1.7c0-0.1,0-0.1,0-0.2c0-0.6,0.2-1.2,0.5-1.7s0.7-0.9,1.2-1.2
		s1.1-0.6,1.7-0.7c0.6-0.2,1.3-0.2,1.9-0.2c0.5,0,1.1,0.1,1.6,0.2c0.5,0.1,1.1,0.3,1.5,0.5c0.5,0.2,0.9,0.5,1.3,0.8
		c0.4,0.3,0.7,0.7,0.9,1.2l-0.8,0.3c-0.2-0.4-0.5-0.7-0.8-1s-0.7-0.5-1.1-0.7c-0.4-0.2-0.8-0.3-1.3-0.4c-0.5-0.1-0.9-0.1-1.4-0.1
		s-1.1,0.1-1.6,0.2s-1,0.3-1.4,0.5s-0.7,0.6-1,1s-0.4,0.9-0.5,1.5C179.3,254,179.3,254.1,179.3,254.2z"/>
</g>
<g class="st2">
	<path class="st4" d="M202.2,251.1h-5.3v15.2H196v-15.2h-5.3v-0.9h11.6v0.9H202.2z"/>
</g>
<g class="st2">
	<path class="st4" d="M214.3,266.3h-1l-2-5.6h-7.2l-1.9,5.6h-1l5.9-16h1.3L214.3,266.3z M204.4,259.8h6.6l-3.3-8.9L204.4,259.8z"/>
</g>
<g class="st2">
	<path class="st4" d="M215.9,254.7c0-0.8,0.2-1.4,0.5-2s0.8-1.1,1.3-1.4c0.5-0.4,1.2-0.7,1.9-0.9s1.4-0.3,2.1-0.3
		c0.5,0,1.1,0,1.6,0.1s1,0.3,1.5,0.5s0.9,0.5,1.2,0.8s0.7,0.7,0.9,1.1l-0.8,0.4c-0.2-0.3-0.5-0.6-0.8-0.9c-0.3-0.3-0.7-0.5-1.1-0.6
		s-0.8-0.3-1.3-0.4c-0.4-0.1-0.9-0.1-1.3-0.1c-0.6,0-1.2,0.1-1.8,0.2s-1.1,0.4-1.6,0.7s-0.8,0.7-1.1,1.2s-0.4,1-0.4,1.7v7.2
		c0,0.6,0.1,1.2,0.4,1.7c0.3,0.5,0.6,0.9,1.1,1.2c0.5,0.3,1,0.5,1.6,0.7s1.2,0.2,1.8,0.2c0.5,0,0.9,0,1.3-0.1s0.9-0.2,1.3-0.4
		c0.4-0.2,0.8-0.4,1.1-0.6c0.3-0.3,0.6-0.6,0.8-0.9l0.8,0.4c-0.2,0.4-0.5,0.8-0.9,1.1c-0.4,0.3-0.8,0.6-1.3,0.8
		c-0.5,0.2-1,0.4-1.5,0.5s-1.1,0.2-1.6,0.2c-0.7,0-1.4-0.1-2.1-0.3c-0.7-0.2-1.3-0.5-1.9-0.9c-0.5-0.4-1-0.9-1.3-1.4s-0.5-1.3-0.5-2
		v-7.5H215.9z"/>
</g>
<g class="st2">
	<path class="st4" d="M230.6,266.3h-0.9v-16h0.9v9.4l9.3-9.4h1.1l-7.5,7.7l7.5,8.3h-1.1l-7-7.7l-2.2,2.2v5.5H230.6z"/>
</g>
<g class="st2">
	<path class="st4" d="M266.4,250.3l-4.7,16.1h-1.3l-4.1-12.6l-4.1,12.6H251l-4.7-16.1h0.9l4.4,15.5h0.1l4.2-13.1h1l4.2,13.1h0.1
		l4.4-15.5L266.4,250.3L266.4,250.3z"/>
	<path class="st4" d="M269.8,257.8h8.1v0.9h-8.1v6.7h8.8v0.9h-9.7v-16h9.7v0.9h-8.8V257.8z"/>
	<path class="st4" d="M287.7,266.3h-6v-16.1h6c0.6,0,1.1,0.1,1.7,0.3s1,0.4,1.4,0.8c0.4,0.3,0.7,0.7,0.9,1.2
		c0.2,0.5,0.3,1.1,0.3,1.7c0,0.4,0,0.8-0.1,1.1s-0.2,0.6-0.3,0.9c-0.2,0.3-0.4,0.6-0.7,0.8c-0.3,0.2-0.7,0.5-1.2,0.7
		c0.7,0.2,1.2,0.5,1.7,0.7c0.4,0.3,0.7,0.6,0.9,1c0.2,0.4,0.3,0.7,0.4,1.2c0.1,0.4,0.1,0.8,0.1,1.3c0,0.8-0.2,1.5-0.4,2
		s-0.6,1-1.1,1.4s-1,0.6-1.6,0.7C289.1,266.2,288.4,266.3,287.7,266.3z M287.7,257.4c0.5,0,1-0.1,1.4-0.2s0.8-0.3,1.1-0.6
		c0.3-0.3,0.6-0.6,0.7-1c0.2-0.4,0.3-0.9,0.3-1.4s-0.1-1-0.3-1.4c-0.2-0.4-0.4-0.7-0.7-1c-0.3-0.3-0.7-0.5-1.1-0.6s-0.9-0.2-1.4-0.2
		h-5.1v6.3h5.1V257.4z M287.9,265.4c0.5,0,1,0,1.5-0.1s1-0.3,1.3-0.6c0.4-0.3,0.7-0.6,0.9-1.1c0.2-0.5,0.3-1,0.3-1.7
		c0-1.3-0.4-2.3-1.1-2.9c-0.8-0.6-1.8-0.8-3-0.8h-0.1h-5.1v7.2h5.1C287.8,265.4,287.9,265.4,287.9,265.4z"/>
	<path class="st4" d="M306.9,250.3c0.7,0,1.4,0.1,2,0.2c0.6,0.2,1.2,0.4,1.7,0.8c0.5,0.4,0.9,0.8,1.2,1.4s0.4,1.2,0.4,2v7.1
		c0,0.8-0.1,1.5-0.4,2c-0.3,0.6-0.7,1-1.2,1.4s-1.1,0.6-1.7,0.8c-0.6,0.2-1.3,0.2-2,0.2h-5.6v-16h5.6V250.3z M306.9,265.4
		c0.6,0,1.2-0.1,1.7-0.2s1-0.3,1.4-0.6s0.7-0.6,1-1.1s0.4-1,0.4-1.6v-7.1c0-0.6-0.1-1.2-0.4-1.6s-0.6-0.8-1-1.1s-0.9-0.5-1.4-0.6
		s-1.1-0.2-1.7-0.2h-4.7v14.3h4.7V265.4z"/>
	<path class="st4" d="M316.8,257.8h8.1v0.9h-8.1v6.7h8.8v0.9h-9.7v-16h9.7v0.9h-8.8V257.8z"/>
	<path class="st4" d="M327,250.3h1l5.6,15.6l5.5-15.5h1l-5.8,16.2H333L327,250.3z"/>
	<path class="st4" d="M343.3,257.8h8.1v0.9h-8.1v6.7h8.8v0.9h-9.7v-16h9.7v0.9h-8.8V257.8z"/>
</g>
<g class="st2">
	<path class="st4" d="M355.2,266.3v-16h0.9v15.2h8v0.9h-8.9V266.3z"/>
</g>
<g class="st2">
	<path class="st4" d="M365.4,254.7c0-0.8,0.2-1.5,0.5-2s0.8-1.1,1.4-1.5s1.2-0.7,2-0.9s1.5-0.3,2.3-0.3s1.5,0.1,2.3,0.3
		c0.7,0.2,1.4,0.5,2,0.9s1,0.9,1.4,1.5s0.5,1.3,0.5,2v7.1c0,0.8-0.2,1.5-0.5,2.1s-0.8,1.1-1.4,1.5s-1.2,0.7-2,0.9
		c-0.7,0.2-1.5,0.3-2.3,0.3s-1.5-0.1-2.3-0.3c-0.7-0.2-1.4-0.5-2-0.9s-1-0.9-1.4-1.5s-0.5-1.3-0.5-2.1V254.7z M366.2,261.8
		c0,0.6,0.2,1.2,0.5,1.7s0.7,0.9,1.2,1.2c0.5,0.3,1,0.6,1.7,0.7c0.6,0.2,1.3,0.2,1.9,0.2s1.3-0.1,1.9-0.2c0.6-0.2,1.2-0.4,1.7-0.7
		c0.5-0.3,0.9-0.7,1.2-1.2c0.3-0.5,0.5-1,0.5-1.7v-7.1c0-0.7-0.2-1.3-0.5-1.7c-0.3-0.5-0.7-0.9-1.2-1.2s-1.1-0.5-1.7-0.7
		c-0.6-0.1-1.3-0.2-1.9-0.2s-1.3,0.1-1.9,0.2c-0.6,0.2-1.2,0.4-1.7,0.7s-0.9,0.7-1.2,1.2s-0.5,1-0.5,1.7V261.8z"/>
	<path class="st4" d="M381.1,266.3v-16h5.8c1.1,0,2.1,0.2,2.8,0.7c0.8,0.5,1.3,1.1,1.7,1.8c0.4,0.7,0.6,1.5,0.6,2.4
		c0,0.8-0.2,1.6-0.6,2.3c-0.4,0.7-0.9,1.3-1.7,1.8c-0.7,0.5-1.7,0.7-2.8,0.7h-5v6.2h-0.8V266.3z M387,259.2c1,0,1.7-0.2,2.4-0.6
		c0.6-0.4,1.1-0.9,1.4-1.5s0.4-1.2,0.4-1.9s-0.2-1.4-0.5-2s-0.8-1.1-1.4-1.5s-1.4-0.6-2.3-0.6h-5v8h5V259.2z"/>
	<path class="st4" d="M395.8,257.8h8.1v0.9h-8.1v6.7h8.8v0.9h-9.7v-16h9.7v0.9h-8.8V257.8z"/>
	<path class="st4" d="M408.6,259.3v7h-0.9v-16h5.8c0.7,0,1.4,0.1,2,0.3s1.2,0.4,1.6,0.8s0.8,0.8,1.1,1.4c0.3,0.6,0.4,1.3,0.4,2
		c0,0.9-0.1,1.6-0.4,2.2c-0.2,0.6-0.6,1-1.1,1.4s-1,0.6-1.6,0.7s-1.3,0.2-2.1,0.2H413l5.4,7h-1l-5.4-7L408.6,259.3L408.6,259.3z
		 M413.5,258.5c1.4,0,2.5-0.3,3.2-0.8c0.7-0.6,1.1-1.5,1.1-2.9c0-0.7-0.1-1.3-0.3-1.7c-0.2-0.5-0.5-0.8-0.9-1.1s-0.8-0.5-1.3-0.6
		s-1-0.2-1.5-0.2c-0.1,0-0.1,0-0.2,0h-5v7.4h4.9V258.5z"/>
</g>
</svg>
