<?xml version="1.0" encoding="utf-8"?>
<!-- Generator: Adobe Illustrator 23.0.1, SVG Export Plug-In . SVG Version: 6.00 Build 0)  -->
<svg version="1.1" id="Layer_1" xmlns="http://www.w3.org/2000/svg" xmlns:xlink="http://www.w3.org/1999/xlink" x="0px" y="0px"
	 viewBox="0 0 563.1 69.2" style="enable-background:new 0 0 563.1 69.2;" xml:space="preserve">
<style type="text/css">
	.st0{enable-background:new    ;}
	.st1{fill:#FFFFFF;}
	.st2{fill:#F89011;}
	.st3{opacity:0.96;enable-background:new    ;}
</style>
<title>logo_color</title>
<g class="st0">
	<path class="st1" d="M110.4,21.7h14.1v7.1h-14.1v12.8h-7.2V7.1h23.3v7h-16.1V21.7z"/>
	<path class="st1" d="M138.1,29v12.6h-7.2V7.1h13.6c1.7,0,3.3,0.2,4.8,0.6c1.5,0.4,2.8,1.1,3.9,1.9c1.1,0.9,2,2,2.6,3.4
		c0.6,1.4,1,3.1,1,5c0,3.2-0.7,5.6-2,7.2c-1.4,1.6-3.3,2.7-5.8,3.2l10.3,13.1h-8.8L140.6,29H138.1z M144.5,22.5c1.6,0,2.8-0.3,3.8-1
		c0.9-0.7,1.4-1.8,1.4-3.3c0-1.5-0.5-2.5-1.4-3.1c-0.9-0.5-2-0.8-3.3-0.8c-0.1,0-0.3,0-0.4,0h-6.4v8.1H144.5z"/>
	<path class="st1" d="M189.8,41.6h-7.5l-3-7.9H169l-2.9,7.9h-7.6l12.1-34.5h6.9L189.8,41.6z M170.8,27.1h6.6l-2.2-7.5l-1.1-4.9h-0.3
		l-1.1,5L170.8,27.1z"/>
	<path class="st1" d="M212.4,24.8V7.1h7.2v34.5h-7.6l-10.5-18.1l-2.1-4.7l-0.5,0.1l0.9,5.9v16.8h-7.2V7.1h7.1l10.9,18.8l2.4,6.2
		l0.5-0.1c-0.1-0.6-0.2-1.2-0.3-2c-0.1-0.8-0.2-1.5-0.3-2.2c-0.1-0.7-0.2-1.4-0.3-1.9C212.4,25.3,212.4,25,212.4,24.8z"/>
	<path class="st1" d="M238.2,42.1c-1.7,0-3.3-0.2-4.9-0.7c-1.6-0.5-3.1-1.2-4.4-2.1c-1.3-0.9-2.3-2.1-3.1-3.6
		c-0.8-1.4-1.2-3.1-1.2-5V18.1c0-1.9,0.4-3.5,1.1-5c0.8-1.4,1.8-2.6,3-3.6c1.3-1,2.7-1.7,4.3-2.2c1.6-0.5,3.3-0.7,5-0.7
		c1.1,0,2.3,0.1,3.5,0.4c1.2,0.3,2.3,0.7,3.4,1.4c1.1,0.6,2.1,1.4,2.9,2.3c0.9,0.9,1.6,2,2.2,3.3l-5.7,3.1c-0.7-1.3-1.7-2.2-2.9-2.8
		c-1.2-0.6-2.4-0.9-3.7-0.9c-0.1,0-0.1,0-0.2,0c-0.8,0-1.5,0.1-2.2,0.3c-0.7,0.2-1.3,0.5-1.9,0.9c-0.6,0.4-1,0.9-1.3,1.4
		c-0.3,0.6-0.5,1.2-0.5,1.9v12.6c0,0.7,0.2,1.3,0.5,1.9c0.3,0.6,0.7,1,1.3,1.4c0.5,0.4,1.2,0.7,1.8,0.9c0.7,0.2,1.4,0.3,2.2,0.3
		c0.1,0,0.1,0,0.2,0c1.2,0,2.4-0.3,3.7-0.9c1.3-0.6,2.2-1.5,2.9-2.9l6.2,3.5c-1.5,2.4-3.3,4.2-5.5,5.4
		C242.8,41.5,240.5,42.1,238.2,42.1z"/>
	<path class="st1" d="M253.1,18.1c0-1.9,0.4-3.6,1.2-5c0.8-1.4,1.9-2.6,3.2-3.6s2.8-1.7,4.5-2.1c1.7-0.5,3.4-0.7,5.2-0.7
		s3.5,0.2,5.2,0.7c1.7,0.5,3.2,1.2,4.5,2.2c1.3,1,2.4,2.1,3.2,3.6s1.2,3.1,1.2,5v12.5c0,1.9-0.4,3.6-1.2,5c-0.8,1.4-1.9,2.6-3.2,3.6
		c-1.3,1-2.8,1.7-4.5,2.2c-1.7,0.5-3.4,0.7-5.2,0.7s-3.5-0.2-5.2-0.7c-1.7-0.5-3.2-1.2-4.5-2.1s-2.4-2.2-3.2-3.6
		c-0.8-1.4-1.2-3.1-1.2-5V18.1z M260.2,30.6c0,0.7,0.2,1.4,0.6,1.9c0.4,0.5,0.9,1,1.6,1.3c0.6,0.4,1.4,0.6,2.2,0.8
		c0.8,0.2,1.7,0.3,2.6,0.3s1.7-0.1,2.6-0.3c0.8-0.2,1.6-0.5,2.2-0.8c0.7-0.4,1.2-0.8,1.6-1.3c0.4-0.5,0.6-1.2,0.6-1.9V18.1
		c0-0.7-0.2-1.4-0.6-1.9c-0.4-0.6-0.9-1-1.6-1.4c-0.6-0.4-1.4-0.6-2.2-0.8c-0.8-0.2-1.7-0.3-2.6-0.3c-0.9,0-1.7,0.1-2.6,0.3
		c-0.8,0.2-1.6,0.5-2.2,0.8c-0.6,0.4-1.2,0.8-1.6,1.4c-0.4,0.6-0.6,1.2-0.6,1.9V30.6z"/>
	<path class="st1" d="M293.6,41.6h-7.2V7.1h7.2V41.6z"/>
	<path class="st1" d="M310.7,35.2c1.3,0,2.4-0.3,3.4-0.9c1.1-0.6,1.6-1.6,1.6-2.9c0-0.6-0.2-1.2-0.5-1.6c-0.4-0.5-0.8-0.9-1.4-1.2
		c-0.6-0.3-1.3-0.5-2.1-0.7c-0.8-0.2-1.7-0.3-2.6-0.4c-1.4-0.2-2.7-0.5-4-1c-1.3-0.5-2.5-1.1-3.5-1.9c-1-0.8-1.8-1.9-2.5-3.2
		c-0.6-1.2-0.9-2.7-0.9-4.5c0-0.1,0-0.2,0-0.3c0.1-1.6,0.5-3.1,1.3-4.3c0.7-1.2,1.7-2.3,2.8-3.1c1.2-0.8,2.5-1.5,3.9-1.9
		c1.5-0.4,3-0.6,4.5-0.6c2.2,0,4.4,0.5,6.4,1.4c2,0.9,3.8,2.5,5.2,4.7l-5.9,3.9c-0.7-1.1-1.6-2-2.6-2.5c-1-0.5-2-0.8-3.2-0.8
		c-0.7,0-1.3,0.1-1.9,0.2c-0.6,0.1-1.2,0.3-1.7,0.6c-0.5,0.3-0.9,0.6-1.2,1.1c-0.3,0.4-0.5,0.9-0.5,1.5v0c0,0.7,0.2,1.3,0.5,1.7
		c0.3,0.4,0.8,0.8,1.3,1c0.6,0.3,1.2,0.5,1.9,0.6c0.7,0.1,1.4,0.3,2.2,0.5c1.5,0.3,2.9,0.7,4.4,1.1c1.4,0.5,2.7,1.1,3.7,2
		c1.1,0.9,1.9,2,2.6,3.3c0.6,1.2,0.8,2.6,0.8,4.3c0,0.3,0,0.5,0,0.8c-0.2,1.6-0.6,3-1.4,4.3c-0.8,1.2-1.8,2.3-3,3.1
		s-2.6,1.5-4.1,1.9c-1.5,0.4-3,0.7-4.6,0.7c-2.2,0-4.4-0.5-6.6-1.6c-2.1-1.1-3.9-2.7-5.4-4.9l5.4-4.1c0.8,1.2,1.8,2.2,3.2,2.8
		c1.4,0.6,2.7,1,4,1C310.6,35.2,310.7,35.2,310.7,35.2z"/>
</g>
<g class="st0">
	<path class="st2" d="M342,14.3v27.3h-7.2V14.3h-9.9V7.1h27v7.2H342z"/>
	<path class="st2" d="M362.8,29v12.6h-7.2V7.1h13.6c1.7,0,3.3,0.2,4.8,0.6s2.8,1.1,3.9,1.9c1.1,0.9,2,2,2.6,3.4c0.6,1.4,1,3.1,1,5
		c0,3.2-0.7,5.6-2,7.2c-1.4,1.6-3.3,2.7-5.8,3.2L384,41.6h-8.8L365.4,29H362.8z M369.2,22.5c1.6,0,2.8-0.3,3.8-1
		c0.9-0.7,1.4-1.8,1.4-3.3c0-1.5-0.5-2.5-1.4-3.1c-0.9-0.5-2-0.8-3.3-0.8c-0.1,0-0.3,0-0.4,0h-6.4v8.1H369.2z"/>
	<path class="st2" d="M393.6,20.9h14.8v7h-14.8v6.8h16.2v7h-23.4V7.1h23.4v7h-16.2V20.9z"/>
	<path class="st2" d="M421.9,41.6h-7.2V7.1h7.5l8.4,19.8l8.5-19.8h7.5v34.5h-7.2V27.9l0.9-6.7h-0.5l-1.7,4.8l-4.7,11h-5.4L423.3,26
		l-1.7-4.7h-0.5l0.8,6.7V41.6z"/>
	<path class="st2" d="M477.1,17.2c0,0.5-0.1,1-0.2,1.6c-0.1,0.6-0.3,1.1-0.6,1.7c-0.3,0.6-0.6,1.1-1,1.6c-0.4,0.5-0.9,0.9-1.5,1.2
		c1.1,0.5,1.9,1.2,2.6,1.9s1.2,1.5,1.5,2.4s0.5,1.7,0.6,2.6c0,0.3,0,0.6,0,0.9c0,0.6,0,1.2-0.1,1.8c-0.2,1.2-0.5,2.3-1,3.3
		c-0.5,1.1-1.3,2-2.2,2.8s-2.1,1.4-3.6,1.9c-1.4,0.5-3.1,0.7-5.1,0.7h-13.9V7.1h13.6c1.5,0,2.9,0.2,4.2,0.6c1.3,0.4,2.5,1.1,3.4,1.9
		c1,0.9,1.7,1.9,2.3,3.2C476.8,14.1,477.1,15.6,477.1,17.2z M466.3,20.6c1.2,0,2.1-0.3,2.8-1c0.7-0.7,1.1-1.6,1.1-2.4
		c0-0.7-0.3-1.4-0.9-2c-0.6-0.7-1.7-1-3-1h-6.5v6.5H466.3z M466.3,34.6c1.1,0,2-0.2,2.8-0.6c0.8-0.4,1.3-0.9,1.7-1.5
		c0.4-0.6,0.6-1.2,0.6-1.9c0-0.7-0.2-1.3-0.6-1.9c-0.4-0.6-0.9-1.1-1.7-1.5c-0.7-0.4-1.7-0.6-2.8-0.6h-6.5v7.9H466.3z"/>
	<path class="st2" d="M483,7.1h7.2v27.3h14.9v7.2h-22V7.1z"/>
</g>
<g class="st0">
	<path class="st2" d="M536.9,41.6h-7.5l-3-7.9h-10.3l-2.9,7.9h-7.6l12.1-34.5h6.9L536.9,41.6z M518,27.1h6.6l-2.2-7.5l-1.1-4.9H521
		l-1.1,5L518,27.1z"/>
</g>
<g class="st0">
	<path class="st2" d="M543.9,41.6V28.4l-12-21.3h8.2l7.3,14.4l7.3-14.4h8.3l-12,21.3v13.2H543.9z"/>
</g>
<g class="st3">
	<path class="st1" d="M205.2,51.2v6h6.7V58h-6.7v6.2h-0.8V50.4h8.2v0.8H205.2z"/>
	<path class="st1" d="M215.7,60.3c0,0.6,0.1,1,0.4,1.5c0.2,0.4,0.6,0.8,1,1c0.4,0.3,0.8,0.5,1.3,0.6c0.5,0.1,1,0.2,1.5,0.2
		c0.5,0,1-0.1,1.5-0.2c0.5-0.1,1-0.3,1.4-0.6c0.4-0.3,0.7-0.6,1-1c0.2-0.4,0.4-0.9,0.4-1.5v-9.9h0.8v9.9c0,0.7-0.1,1.3-0.4,1.8
		c-0.3,0.5-0.7,0.9-1.1,1.3c-0.5,0.3-1,0.6-1.6,0.8c-0.6,0.2-1.2,0.3-1.8,0.3c-0.6,0-1.2-0.1-1.8-0.3c-0.6-0.2-1.1-0.4-1.6-0.8
		c-0.5-0.3-0.8-0.8-1.1-1.3c-0.3-0.5-0.4-1.1-0.4-1.8v-9.9h0.8V60.3z"/>
	<path class="st1" d="M228.2,64.2V50.4h0.8v13h6.9v0.8H228.2z"/>
</g>
<g class="st0">
	<path class="st1" d="M237.9,64.2V50.4h0.8v13h6.9v0.8H237.9z"/>
</g>
<g class="st0">
	<path class="st1" d="M251.4,58.7h-5.5V58h5.5V58.7z"/>
</g>
<g class="st0">
	<path class="st1" d="M254.2,53.8c0,0.4,0.1,0.7,0.2,1c0.2,0.3,0.5,0.7,0.8,0.9c0.4,0.3,0.8,0.5,1.3,0.6c0.5,0.2,1,0.3,1.5,0.4
		c0.6,0.1,1.2,0.3,1.7,0.4c0.6,0.2,1.1,0.4,1.5,0.7c0.4,0.3,0.8,0.7,1.1,1.2c0.2,0.4,0.3,0.9,0.3,1.5c0,0.1,0,0.2,0,0.3
		c0,0.6-0.2,1.1-0.5,1.5s-0.6,0.8-1.1,1.1c-0.4,0.3-0.9,0.5-1.5,0.7c-0.6,0.1-1.1,0.2-1.7,0.2c-0.5,0-0.9,0-1.4-0.1
		c-0.5-0.1-0.9-0.2-1.3-0.4s-0.8-0.5-1.1-0.7c-0.3-0.3-0.6-0.6-0.8-1.1l0.7-0.3c0.2,0.3,0.4,0.6,0.7,0.9c0.3,0.2,0.6,0.5,1,0.6
		c0.4,0.2,0.7,0.3,1.1,0.4c0.4,0.1,0.8,0.1,1.2,0.1c0.5,0,0.9-0.1,1.4-0.2c0.4-0.1,0.8-0.3,1.2-0.5c0.4-0.2,0.7-0.5,0.9-0.9
		c0.2-0.4,0.4-0.8,0.5-1.3c0-0.1,0-0.2,0-0.3c0-0.5-0.1-0.9-0.3-1.2c-0.2-0.4-0.5-0.7-0.9-1s-0.8-0.4-1.4-0.6
		c-0.5-0.1-1-0.3-1.5-0.4c-0.5-0.1-1.1-0.3-1.6-0.4c-0.5-0.2-1-0.4-1.4-0.7c-0.4-0.3-0.8-0.7-1-1.1c-0.2-0.4-0.4-0.9-0.4-1.5
		c0-0.1,0-0.1,0-0.2c0-0.6,0.2-1,0.4-1.5c0.3-0.4,0.6-0.8,1-1.1c0.4-0.3,0.9-0.5,1.4-0.6c0.5-0.1,1.1-0.2,1.7-0.2
		c0.5,0,0.9,0,1.4,0.1c0.5,0.1,0.9,0.2,1.3,0.4c0.4,0.2,0.8,0.4,1.1,0.7s0.6,0.6,0.8,1l-0.7,0.3c-0.2-0.3-0.4-0.6-0.7-0.8
		c-0.3-0.2-0.6-0.4-1-0.6s-0.7-0.3-1.1-0.4c-0.4-0.1-0.8-0.1-1.2-0.1c-0.5,0-0.9,0-1.4,0.1c-0.4,0.1-0.8,0.2-1.2,0.5
		s-0.6,0.5-0.9,0.8c-0.2,0.3-0.4,0.8-0.4,1.3C254.2,53.7,254.2,53.8,254.2,53.8z"/>
</g>
<g class="st0">
	<path class="st1" d="M273.9,51.2h-4.6v13h-0.8v-13H264v-0.8h9.9V51.2z"/>
</g>
<g class="st0">
	<path class="st1" d="M284.3,64.2h-0.8l-1.7-4.8h-6.2l-1.7,4.8h-0.8l5-13.8h1.1L284.3,64.2z M275.8,58.7h5.6l-2.8-7.7L275.8,58.7z"
		/>
</g>
<g class="st0">
	<path class="st1" d="M285.7,54.2c0-0.7,0.1-1.2,0.4-1.7c0.3-0.5,0.7-0.9,1.1-1.2c0.5-0.3,1-0.6,1.6-0.8c0.6-0.2,1.2-0.3,1.8-0.3
		c0.5,0,0.9,0,1.4,0.1c0.4,0.1,0.9,0.2,1.3,0.4c0.4,0.2,0.8,0.4,1.1,0.7c0.3,0.3,0.6,0.6,0.8,1l-0.7,0.4c-0.2-0.3-0.4-0.5-0.7-0.8
		c-0.3-0.2-0.6-0.4-0.9-0.6c-0.3-0.1-0.7-0.3-1.1-0.3S291,51,290.7,51c-0.5,0-1,0.1-1.5,0.2c-0.5,0.1-1,0.3-1.4,0.6s-0.7,0.6-1,1
		c-0.2,0.4-0.4,0.9-0.4,1.4v6.2c0,0.5,0.1,1,0.4,1.4c0.2,0.4,0.6,0.7,1,1s0.8,0.5,1.4,0.6c0.5,0.1,1,0.2,1.5,0.2
		c0.4,0,0.8,0,1.1-0.1s0.7-0.2,1.1-0.3c0.3-0.1,0.7-0.3,0.9-0.5c0.3-0.2,0.5-0.5,0.7-0.8l0.7,0.3c-0.2,0.4-0.5,0.7-0.8,1
		c-0.3,0.3-0.7,0.5-1.1,0.7c-0.4,0.2-0.8,0.3-1.3,0.4c-0.4,0.1-0.9,0.1-1.4,0.1c-0.6,0-1.2-0.1-1.8-0.3c-0.6-0.2-1.1-0.4-1.6-0.7
		c-0.5-0.3-0.8-0.7-1.1-1.2s-0.4-1.1-0.4-1.7V54.2z"/>
</g>
<g class="st0">
	<path class="st1" d="M298.3,64.2h-0.8V50.4h0.8v8l8-8h0.9l-6.4,6.6l6.4,7.1h-1l-6-6.6l-1.9,1.9V64.2z"/>
</g>
<g class="st0">
	<path class="st1" d="M329,50.4l-4,13.8h-1.1l-3.5-10.8l-3.5,10.8h-1.1l-4-13.8h0.8l3.8,13.3h0.1l3.6-11.3h0.8l3.6,11.3h0.1
		l3.8-13.3H329z"/>
	<path class="st1" d="M331.9,56.9h7v0.8h-7v5.7h7.6v0.8h-8.3V50.4h8.3v0.8h-7.6V56.9z"/>
	<path class="st1" d="M347.3,64.2h-5.2V50.4h5.2c0.5,0,1,0.1,1.4,0.2c0.5,0.1,0.9,0.4,1.2,0.7c0.3,0.3,0.6,0.6,0.8,1.1
		c0.2,0.4,0.3,0.9,0.3,1.5c0,0.4,0,0.7-0.1,0.9c0,0.3-0.1,0.5-0.3,0.8c-0.1,0.2-0.3,0.5-0.6,0.7c-0.3,0.2-0.6,0.4-1,0.6
		c0.6,0.2,1.1,0.4,1.4,0.6c0.4,0.2,0.6,0.5,0.8,0.8s0.3,0.6,0.3,1c0,0.4,0.1,0.7,0.1,1.1c0,0.7-0.1,1.3-0.4,1.8
		c-0.2,0.5-0.5,0.9-0.9,1.2c-0.4,0.3-0.8,0.5-1.4,0.6C348.5,64.2,347.9,64.2,347.3,64.2z M347.3,56.6c0.4,0,0.8-0.1,1.2-0.2
		c0.4-0.1,0.7-0.3,1-0.5c0.3-0.2,0.5-0.5,0.6-0.9c0.1-0.3,0.2-0.7,0.2-1.2c0-0.5-0.1-0.8-0.2-1.2c-0.2-0.3-0.4-0.6-0.6-0.8
		s-0.6-0.4-1-0.5c-0.4-0.1-0.8-0.2-1.2-0.2h-4.4v5.4H347.3z M347.5,63.5c0.5,0,0.9,0,1.3-0.1c0.5-0.1,0.8-0.3,1.2-0.5
		c0.3-0.2,0.6-0.5,0.7-0.9c0.2-0.4,0.3-0.9,0.3-1.5c0-1.2-0.3-2-1-2.5c-0.6-0.5-1.5-0.7-2.6-0.7c0,0-0.1,0-0.1,0h-4.4v6.2h4.4
		C347.3,63.5,347.4,63.5,347.5,63.5z"/>
	<path class="st1" d="M363.8,50.4c0.6,0,1.2,0.1,1.8,0.2c0.6,0.1,1,0.4,1.5,0.7c0.4,0.3,0.8,0.7,1,1.2s0.4,1.1,0.4,1.7v6.1
		c0,0.7-0.1,1.3-0.4,1.7s-0.6,0.9-1,1.2c-0.4,0.3-0.9,0.5-1.5,0.7c-0.6,0.1-1.1,0.2-1.8,0.2H359V50.4H363.8z M363.8,63.4
		c0.5,0,1-0.1,1.5-0.2c0.5-0.1,0.9-0.3,1.2-0.5c0.3-0.2,0.6-0.6,0.8-0.9c0.2-0.4,0.3-0.9,0.3-1.4v-6.1c0-0.5-0.1-1-0.3-1.4
		c-0.2-0.4-0.5-0.7-0.8-1c-0.3-0.2-0.7-0.4-1.2-0.5c-0.5-0.1-1-0.2-1.5-0.2h-4v12.3H363.8z"/>
	<path class="st1" d="M372.2,56.9h7v0.8h-7v5.7h7.6v0.8h-8.3V50.4h8.3v0.8h-7.6V56.9z"/>
	<path class="st1" d="M381,50.4h0.8l4.8,13.4l4.8-13.3h0.8l-5,13.9h-1.1L381,50.4z"/>
	<path class="st1" d="M395,56.9h7v0.8h-7v5.7h7.6v0.8h-8.3V50.4h8.3v0.8H395V56.9z"/>
</g>
<g class="st0">
	<path class="st1" d="M405.3,64.2V50.4h0.8v13h6.9v0.8H405.3z"/>
</g>
<g class="st0">
	<path class="st1" d="M414,54.3c0-0.7,0.1-1.3,0.4-1.8c0.3-0.5,0.7-0.9,1.2-1.3c0.5-0.3,1.1-0.6,1.7-0.8c0.6-0.2,1.3-0.3,1.9-0.3
		c0.7,0,1.3,0.1,1.9,0.3c0.6,0.2,1.2,0.4,1.7,0.8c0.5,0.3,0.9,0.8,1.2,1.3s0.5,1.1,0.5,1.8v6.1c0,0.7-0.2,1.3-0.5,1.8
		s-0.7,0.9-1.2,1.3c-0.5,0.3-1.1,0.6-1.7,0.8c-0.6,0.2-1.3,0.3-1.9,0.3c-0.7,0-1.3-0.1-1.9-0.3c-0.6-0.2-1.2-0.4-1.7-0.8
		c-0.5-0.3-0.9-0.8-1.2-1.3c-0.3-0.5-0.4-1.1-0.4-1.8V54.3z M414.8,60.3c0,0.5,0.1,1,0.4,1.4c0.3,0.4,0.6,0.8,1,1s0.9,0.5,1.4,0.6
		c0.5,0.1,1.1,0.2,1.7,0.2c0.6,0,1.1-0.1,1.7-0.2c0.5-0.1,1-0.3,1.4-0.6c0.4-0.3,0.8-0.6,1-1c0.3-0.4,0.4-0.9,0.4-1.4v-6.1
		c0-0.6-0.1-1.1-0.4-1.5c-0.3-0.4-0.6-0.8-1-1c-0.4-0.3-0.9-0.5-1.5-0.6c-0.5-0.1-1.1-0.2-1.7-0.2c-0.6,0-1.1,0.1-1.6,0.2
		c-0.5,0.1-1,0.3-1.4,0.6s-0.8,0.6-1,1s-0.4,0.9-0.4,1.5V60.3z"/>
	<path class="st1" d="M427.6,64.2V50.4h5c1,0,1.8,0.2,2.4,0.6s1.1,0.9,1.5,1.6c0.3,0.6,0.5,1.3,0.5,2.1c0,0.7-0.2,1.4-0.5,2
		c-0.3,0.6-0.8,1.1-1.4,1.6c-0.6,0.4-1.4,0.6-2.4,0.6h-4.3v5.3H427.6z M432.6,58.1c0.8,0,1.5-0.2,2-0.5c0.5-0.3,0.9-0.8,1.2-1.3
		c0.2-0.5,0.4-1,0.4-1.6c0-0.6-0.1-1.2-0.4-1.8c-0.3-0.5-0.7-0.9-1.2-1.3c-0.5-0.3-1.2-0.5-1.9-0.5h-4.2v6.9H432.6z"/>
	<path class="st1" d="M440.2,56.9h7v0.8h-7v5.7h7.6v0.8h-8.3V50.4h8.3v0.8h-7.6V56.9z"/>
	<path class="st1" d="M451.2,58.2v6h-0.8V50.4h5c0.6,0,1.2,0.1,1.7,0.2c0.5,0.1,1,0.4,1.4,0.7c0.4,0.3,0.7,0.7,0.9,1.2
		s0.4,1.1,0.4,1.8c0,0.7-0.1,1.4-0.3,1.8c-0.2,0.5-0.5,0.9-0.9,1.2c-0.4,0.3-0.9,0.5-1.4,0.6s-1.1,0.2-1.8,0.2H455l4.6,6h-0.9
		l-4.6-6H451.2z M455.4,57.5c1.2,0,2.1-0.2,2.7-0.7s0.9-1.3,0.9-2.5c0-0.6-0.1-1.1-0.3-1.5c-0.2-0.4-0.4-0.7-0.7-1
		c-0.3-0.2-0.7-0.4-1.2-0.5c-0.4-0.1-0.8-0.1-1.3-0.1c-0.1,0-0.1,0-0.2,0h-4.3v6.3H455.4z"/>
</g>
<path class="st2" d="M10.7,9.7c-0.5,0-1,0.1-1.5,0.3c-0.3,0.3-0.6,0.6-0.8,1c-0.1,0.5-0.2,1-0.2,1.5c-0.1,0.7-0.1,1.3-0.1,2v9.7
	c0,1.4-0.1,2.8-0.4,4.1c-0.2,1-0.5,2-0.9,2.9c-0.3,0.6-0.7,1.2-1.2,1.7l-0.9,0.8l0,0l0.9,0.8c0.5,0.5,0.9,1.1,1.2,1.7
	c0.4,0.9,0.7,1.9,0.9,2.9c0.3,1.3,0.4,2.7,0.4,4v10c0,1.2,0.1,2.3,0.5,3.4c0.3,0.8,1.1,1.1,2.4,1.1h2v3H9.9c-1.6,0.1-3.2-0.7-4.1-2
	c-1-1.6-1.5-3.5-1.4-5.4v-8.7c0-1.2-0.1-2.4-0.2-3.5c-0.1-1-0.3-2-0.7-2.9c-0.3-0.8-0.7-1.5-1.3-2.1c-0.6-0.6-1.4-0.9-2.2-0.8v-2.9
	c0.8,0,1.6-0.3,2.2-0.8c0.6-0.6,1-1.3,1.3-2.1c0.4-1,0.6-2,0.7-3c0.1-1.1,0.2-2.3,0.2-3.5v-8.8c-0.1-1.9,0.4-3.8,1.4-5.4
	c1-1.3,2.5-2,4.1-1.9H13v2.9H10.7z"/>
<path class="st2" d="M77.3,9.7V6.8h3.1c1.6-0.1,3.1,0.6,4.1,1.9c1,1.6,1.5,3.5,1.4,5.4v8.8c0,1.2,0.1,2.4,0.2,3.5c0.1,1,0.3,2,0.7,3
	c0.2,0.8,0.7,1.5,1.3,2.1c0.6,0.5,1.3,0.8,2.1,0.8v2.9c-0.8,0-1.5,0.3-2.1,0.8c-0.6,0.6-1.1,1.3-1.3,2.1C86.4,39,86.2,40,86.1,41
	c-0.1,1.1-0.2,2.3-0.2,3.5v8.8c0.1,1.9-0.4,3.8-1.4,5.4c-0.9,1.3-2.5,2.1-4.1,2h-3.1v-3h2c1.3,0,2.1-0.3,2.4-1.1
	c0.4-1.1,0.5-2.2,0.5-3.4v-10c0-1.3,0.1-2.7,0.4-4c0.1-1,0.4-2,0.9-2.9c0.3-0.6,0.7-1.2,1.2-1.7l0.9-0.8l0,0L84.7,33
	c-0.5-0.5-0.9-1.1-1.2-1.7c-0.4-0.9-0.7-1.9-0.9-2.9c-0.3-1.3-0.4-2.7-0.4-4.1v-9.8c0-0.8-0.1-1.4-0.1-2c0-0.5-0.1-1-0.3-1.5
	c-0.1-0.4-0.4-0.7-0.7-1c-0.5-0.2-1-0.3-1.5-0.3H77.3z"/>
<rect x="14.9" y="6.8" class="st1" width="60" height="2.9"/>
<rect x="14.9" y="57.7" class="st1" width="60" height="2.9"/>
<path class="st1" d="M61.4,63.6V61h2v4.4h-37V61h2v2.6H61.4z"/>
</svg>
